PathFileType	4	(x/y/z)	TRC_MarkerData\Passive\Passive_Pref0005.trc
DataRate	CameraRate	NumFrames	NumMarkers	Units	OrigDataRate	OrigDataStartFrame	OrigNumFrames
240	240	5	50	mm	240	39	304
Frame#	Time	R_AC			L_AC			HEAD			STERN			C7			L_IC			R_IC			L_ASIS			R_ASIS			L_GT			R_GT			L_PSIS			R_PSIS			SACRAL			L_LAT_KNEE			L_MED_KNEE			R_LAT_KNEE			R_MED_KNEE			L_LAT_ANK			L_MED_ANK			R_LAT_ANK			R_MED_ANK			L_THIGH_PROX_POST			L_THIGH_PROX_ANT			L_THIGH_DIST_ANT			L_THIGH_DIST_POST			R_THIGH_PROX_POST			R_THIGH_PROX_ANT			R_THIGH_DIST_ANT			R_THIGH_DIST_POST			L_SHANK_PROX_POST			L_SHANK_PROX_ANT			L_SHANK_DIST_ANT			L_SHANK_DIST_POST			R_SHANK_PROX_POST			R_SHANK_PROX_ANT			R_SHANK_DIST_ANT			R_SHANK_DIST_POST			L_HEEL_LAT			L_HEEL_SUP			L_HEEL_MED			R_HEEL_LAT			R_HEEL_SUP			R_HEEL_MED			L_1ST_MET			L_5TH_MET			L_TOE			R_1ST_MET			R_5TH_MET			R_TOE			
		X1	Y1	Z1	X2	Y2	Z2	X3	Y3	Z3	X4	Y4	Z4	X5	Y5	Z5	X6	Y6	Z6	X7	Y7	Z7	X8	Y8	Z8	X9	Y9	Z9	X10	Y10	Z10	X11	Y11	Z11	X12	Y12	Z12	X13	Y13	Z13	X14	Y14	Z14	X15	Y15	Z15	X16	Y16	Z16	X17	Y17	Z17	X18	Y18	Z18	X19	Y19	Z19	X20	Y20	Z20	X21	Y21	Z21	X22	Y22	Z22	X23	Y23	Z23	X24	Y24	Z24	X25	Y25	Z25	X26	Y26	Z26	X27	Y27	Z27	X28	Y28	Z28	X29	Y29	Z29	X30	Y30	Z30	X31	Y31	Z31	X32	Y32	Z32	X33	Y33	Z33	X34	Y34	Z34	X35	Y35	Z35	X36	Y36	Z36	X37	Y37	Z37	X38	Y38	Z38	X39	Y39	Z39	X40	Y40	Z40	X41	Y41	Z41	X42	Y42	Z42	X43	Y43	Z43	X44	Y44	Z44	X45	Y45	Z45	X46	Y46	Z46	X47	Y47	Z47	X48	Y48	Z48	X49	Y49	Z49	X50	Y50	Z50	

39	0.15886	-689.15	1507.6	432.95	-702.09	1522.6	41.119	-584.45	1815.8	253.07	-592.94	1476.9	237.79	-737.62	1559.6	240.13	-691.65	1064.9	90.959	-689.34	1092.5	427.49	-616.82	1017.6	127.39	-625.32	1001.3	398.94	-695.3	936.27	70.498	-726.02	936.63	442.05	-833.19	1034	206.35	-822.41	1037.3	314.65	-841.69	1012	262.14	-570.73	554.76	121.52	-564.41	566.49	257.84	-796.9	527.03	428.49	-755.28	504.13	301.93	-537.78	110.75	142.32	-544.14	113.04	223.94	-1152.1	245.51	360.14	-1104.6	227.94	267.99	-683.15	780.52	90.776	-618.28	790.1	85.885	-600.78	717.72	99.292	-665.18	709.37	105.07	-772.91	768.58	437.86	-706.81	760.08	447.02	-722.18	687.01	441.5	-788.65	695.39	428.94	-555.57	503.33	130.17	-517.78	526.3	144.49	-508.29	476.93	152.21	-550.56	449.39	136.35	-952.53	474.48	401.79	-904.97	430.48	429.34	-954.34	376.49	415.17	-1002.9	418.19	389.54	-589.91	34.22	142.75	-604	60.424	176.54	-594.34	30.64	209.32	-1219	283.3	314.48	-1188.6	296.72	284.45	-1201.2	270.65	251.66	-375.4	65.632	250.21	-382.84	57.448	143.83	-324.32	84.569	229.45	-1116.3	64.126	285.85	-1165.6	92.635	383.94	-1098.6	35.753	342.15
40	0.16304	-683.25	1508.6	432.56	-696.06	1523.5	40.729	-578.63	1816.8	252.52	-587.11	1477.9	237.43	-731.75	1560.6	239.7	-685.78	1065.9	90.609	-683.64	1093.4	427.15	-611.17	1018.6	126.94	-619.6	1002.3	398.44	-689.92	937.43	70.111	-719.84	937.22	441.65	-827.87	1035.3	206.05	-816.85	1038.2	314.52	-836.09	1012.9	261.93	-567.38	555.02	120.68	-560.91	566.91	256.94	-785.85	526.65	429.09	-743.85	503.66	302.32	-537.21	110.78	142.2	-543.58	113.14	223.59	-1142.6	248.65	360.61	-1095.4	230.15	268.58	-678.41	781.63	90.194	-613.46	790.9	85.229	-596.36	718.36	98.599	-660.73	710.42	104.31	-764.77	768.2	437.93	-698.57	760.48	447.09	-713.1	687.24	441.81	-779.67	694.83	429.23	-552.54	503.5	129.4	-514.6	526.25	143.65	-505.43	476.82	151.43	-547.87	449.54	135.65	-941.03	475.39	402.26	-893.89	430.97	429.94	-943.76	377.44	415.76	-991.96	419.55	390	-589.79	34.366	142.74	-603.79	60.622	176.52	-594.2	30.838	209.33	-1209.2	287.16	314.66	-1178.3	300.07	284.69	-1191.5	274.1	251.98	-375.04	65.009	249.97	-382.61	56.688	143.61	-323.87	83.647	229.13	-1108.9	66.084	287.13	-1158.1	95.757	384.81	-1091.9	36.777	343.57
41	0.16722	-677.42	1509.7	432.19	-690.04	1524.5	40.363	-572.81	1817.7	251.99	-581.3	1478.8	237.11	-725.9	1561.6	239.28	-679.95	1067	90.268	-678.04	1094.3	426.81	-605.55	1019.6	126.52	-613.95	1003.3	397.97	-684.55	938.59	69.737	-713.73	937.85	441.27	-822.52	1036.5	205.72	-811.33	1039.1	314.34	-830.53	1013.9	261.68	-564.17	555.27	119.88	-557.55	567.3	256.07	-774.77	526.38	429.63	-732.42	503.35	302.64	-536.68	110.82	142.08	-543.05	113.23	223.24	-1133	251.67	361.04	-1085.9	232.3	269.12	-673.72	782.75	89.633	-608.69	791.68	84.625	-592.02	719	97.948	-656.35	711.47	103.57	-756.64	767.91	437.98	-690.36	760.96	447.17	-704.05	687.55	442.1	-770.7	694.36	429.48	-549.64	503.66	128.65	-511.56	526.19	142.84	-502.68	476.7	150.69	-545.3	449.68	134.98	-929.49	476.31	402.7	-882.74	431.49	430.49	-933.05	378.39	416.31	-980.88	420.89	390.43	-589.67	34.506	142.73	-603.6	60.81	176.5	-594.07	31.03	209.34	-1199.3	290.69	314.81	-1168	303.14	284.88	-1181.6	277.2	252.28	-374.7	64.438	249.74	-382.4	55.987	143.4	-323.46	82.793	228.83	-1101	68.041	288.48	-1150.1	98.814	385.78	-1084.6	37.991	345.07
42	0.1714	-671.66	1510.8	431.85	-684.03	1525.5	40.022	-566.99	1818.7	251.48	-575.53	1479.8	236.82	-720.08	1562.6	238.9	-674.16	1068.1	89.937	-672.54	1095.3	426.5	-599.95	1020.6	126.13	-608.36	1004.3	397.53	-679.2	939.75	69.377	-707.69	938.52	440.9	-817.15	1037.8	205.39	-805.87	1040	314.13	-825	1014.8	261.39	-561.09	555.51	119.11	-554.34	567.67	255.24	-763.66	526.21	430.14	-720.99	503.18	302.91	-536.17	110.87	141.98	-542.57	113.31	222.89	-1123.1	254.56	361.41	-1076.2	234.37	269.61	-669.09	783.86	89.096	-603.98	792.44	84.076	-587.76	719.62	97.34	-652.04	712.52	102.85	-748.54	767.69	438.01	-682.18	761.52	447.24	-695.03	687.96	442.38	-761.74	693.98	429.69	-546.86	503.81	127.95	-508.64	526.13	142.06	-500.05	476.59	149.99	-542.83	449.81	134.35	-917.9	477.23	403.1	-871.51	432.06	430.99	-922.24	379.35	416.82	-969.73	422.19	390.83	-589.57	34.64	142.73	-603.42	60.99	176.49	-593.94	31.214	209.34	-1189.3	293.87	314.92	-1157.7	305.92	285.02	-1171.7	279.94	252.56	-374.39	63.915	249.53	-382.2	55.341	143.21	-323.08	82.003	228.56	-1092.4	69.98	289.88	-1141.4	101.78	386.83	-1076.5	39.374	346.63
43	0.17558	-665.97	1511.9	431.54	-678.03	1526.5	39.703	-561.17	1819.7	250.98	-569.78	1480.7	236.57	-714.28	1563.7	238.53	-668.41	1069.2	89.617	-667.13	1096.2	426.21	-594.37	1021.6	125.78	-602.83	1005.4	397.13	-673.87	940.89	69.033	-701.72	939.24	440.55	-811.74	1039	205.04	-800.45	1040.9	313.87	-819.49	1015.8	261.07	-558.13	555.73	118.38	-551.25	568.02	254.45	-752.54	526.15	430.6	-709.59	503.17	303.12	-535.69	110.91	141.88	-542.12	113.39	222.54	-1113.1	257.31	361.73	-1066.4	236.37	270.05	-664.51	784.97	88.587	-599.34	793.19	83.583	-583.58	720.24	96.775	-647.79	713.58	102.16	-740.45	767.56	438.02	-674.03	762.16	447.31	-686.03	688.46	442.65	-752.8	693.69	429.87	-544.19	503.96	127.27	-505.84	526.07	141.33	-497.52	476.49	149.32	-540.46	449.94	133.74	-906.29	478.15	403.48	-860.22	432.67	431.44	-911.33	380.32	417.3	-958.51	423.47	391.21	-589.47	34.769	142.73	-603.26	61.161	176.47	-593.83	31.39	209.35	-1179.2	296.7	315.02	-1147.5	308.39	285.11	-1161.7	282.32	252.83	-374.1	63.437	249.34	-382.02	54.748	143.04	-322.73	81.272	228.31	-1083.3	71.883	291.32	-1132.1	104.64	387.97	-1067.7	40.902	348.25
